<mxfile host="app.diagrams.net" modified="2021-06-28T22:25:00.172Z" agent="5.0 (Windows NT 10.0; Win64; x64) AppleWebKit/537.36 (KHTML, like Gecko) Chrome/91.0.4472.124 Safari/537.36" etag="y6EL2G9fPcWY0fFnKbmJ" version="14.8.2" type="github">
  <diagram id="YbvarfHPJJ38xpohrMkF" name="Page-1">
    <mxGraphModel dx="659" dy="1114" grid="1" gridSize="10" guides="1" tooltips="1" connect="1" arrows="1" fold="1" page="1" pageScale="1" pageWidth="850" pageHeight="1100" math="0" shadow="0">
      <root>
        <mxCell id="0" />
        <mxCell id="1" parent="0" />
        <mxCell id="lGkbaOFVaW4Oac1FIikB-1" value="" style="rounded=1;whiteSpace=wrap;html=1;arcSize=3;" vertex="1" parent="1">
          <mxGeometry x="120" y="130" width="710" height="800" as="geometry" />
        </mxCell>
        <mxCell id="lGkbaOFVaW4Oac1FIikB-5" value="" style="edgeStyle=orthogonalEdgeStyle;rounded=0;orthogonalLoop=1;jettySize=auto;html=1;" edge="1" parent="1" source="lGkbaOFVaW4Oac1FIikB-3">
          <mxGeometry relative="1" as="geometry">
            <mxPoint x="290" y="210" as="targetPoint" />
          </mxGeometry>
        </mxCell>
        <mxCell id="lGkbaOFVaW4Oac1FIikB-3" value="&lt;font style=&quot;font-size: 25px&quot;&gt;COVID 19 TRACKER&lt;/font&gt;" style="text;html=1;strokeColor=none;fillColor=none;align=center;verticalAlign=middle;whiteSpace=wrap;rounded=0;" vertex="1" parent="1">
          <mxGeometry x="110" y="190" width="270" height="60" as="geometry" />
        </mxCell>
        <mxCell id="lGkbaOFVaW4Oac1FIikB-6" value="&lt;b&gt;Worldwide&lt;/b&gt;" style="rounded=1;whiteSpace=wrap;html=1;arcSize=0;" vertex="1" parent="1">
          <mxGeometry x="425" y="200" width="135" height="40" as="geometry" />
        </mxCell>
        <mxCell id="lGkbaOFVaW4Oac1FIikB-7" value="&lt;b&gt;Coronavirus cases&lt;br&gt;+ 2.000&lt;br&gt;1.2 M Total&lt;/b&gt;" style="rounded=1;whiteSpace=wrap;html=1;align=left;arcSize=8;" vertex="1" parent="1">
          <mxGeometry x="120" y="270" width="120" height="60" as="geometry" />
        </mxCell>
        <mxCell id="lGkbaOFVaW4Oac1FIikB-9" value="&lt;div&gt;&lt;span&gt;&lt;b&gt;Recovered&lt;/b&gt;&lt;/span&gt;&lt;/div&gt;&lt;b&gt;+ 2.000&lt;br&gt;1.2 M Total&lt;/b&gt;" style="rounded=1;whiteSpace=wrap;html=1;align=left;" vertex="1" parent="1">
          <mxGeometry x="270" y="270" width="120" height="60" as="geometry" />
        </mxCell>
        <mxCell id="lGkbaOFVaW4Oac1FIikB-10" value="&lt;b&gt;Deaths&lt;br&gt;+ 2.000&lt;br&gt;1.2 M Total&lt;/b&gt;" style="rounded=1;whiteSpace=wrap;html=1;align=left;" vertex="1" parent="1">
          <mxGeometry x="425" y="270" width="135" height="60" as="geometry" />
        </mxCell>
        <mxCell id="lGkbaOFVaW4Oac1FIikB-11" value="" style="rounded=1;whiteSpace=wrap;html=1;arcSize=3;" vertex="1" parent="1">
          <mxGeometry x="120" y="360" width="440" height="510" as="geometry" />
        </mxCell>
        <mxCell id="lGkbaOFVaW4Oac1FIikB-12" value="" style="rounded=1;whiteSpace=wrap;html=1;arcSize=5;" vertex="1" parent="1">
          <mxGeometry x="580" y="200" width="210" height="680" as="geometry" />
        </mxCell>
      </root>
    </mxGraphModel>
  </diagram>
</mxfile>
